<svg width="90" height="114" viewBox="0 0 90 114" fill="none" xmlns="http://www.w3.org/2000/svg">
<rect x="1.5" y="24.5" width="87" height="65" rx="4.5" stroke="black" stroke-width="3"/>
<rect x="10.5" y="36.5" width="69" height="41" rx="1.5" stroke="black" stroke-width="3"/>
<circle cx="77" cy="83" r="2.5" stroke="black"/>
<circle cx="69" cy="83" r="2.5" stroke="black"/>
<circle cx="61" cy="83" r="2.5" stroke="black"/>
<ellipse cx="45" cy="23" rx="8" ry="3" fill="black"/>
<path d="M37 11L45.3817 22.677" stroke="black" stroke-width="2" stroke-linecap="round"/>
<path d="M53 2L46 23" stroke="black" stroke-width="2" stroke-linecap="round"/>
<circle cx="37" cy="11" r="2" fill="black"/>
<circle cx="53" cy="2" r="2" fill="black"/>
<path d="M30.305 67.824C30.049 67.824 29.8357 67.6853 29.665 67.408C29.537 67.28 29.3983 67.0773 29.249 66.8C29.0997 66.5227 29.0463 66.0747 29.089 65.456C29.153 64.816 29.3877 63.888 29.793 62.672C30.0063 61.8613 30.177 61.2747 30.305 60.912C30.433 60.528 30.497 60.2507 30.497 60.08C30.497 59.8453 30.5183 59.6533 30.561 59.504C30.625 59.3333 30.657 59.1733 30.657 59.024C30.785 59.024 30.913 58.9067 31.041 58.672C31.169 58.4373 31.2757 58.1173 31.361 57.712C31.4463 57.3493 31.521 57.0613 31.585 56.848C31.6703 56.6133 31.713 56.4533 31.713 56.368C31.8197 56.1973 31.9263 55.9307 32.033 55.568C32.161 55.2053 32.353 54.768 32.609 54.256C32.7797 53.616 32.9717 52.9547 33.185 52.272C33.3983 51.568 33.6117 50.9173 33.825 50.32C34.0597 49.7013 34.2517 49.2213 34.401 48.88C34.6357 48.2187 34.817 47.76 34.945 47.504C35.073 47.2267 35.073 47.0453 34.945 46.96C34.7957 46.8533 34.721 46.5867 34.721 46.16C34.7423 45.712 34.945 45.328 35.329 45.008C35.5637 44.7307 35.8623 44.5387 36.225 44.432C36.5877 44.304 37.0037 44.24 37.473 44.24C37.9423 44.24 38.433 44.2613 38.945 44.304C39.329 44.3253 39.7343 44.336 40.161 44.336C40.609 44.336 40.8863 44.336 40.993 44.336C41.185 44.4213 41.4197 44.5173 41.697 44.624C41.9743 44.7307 42.2197 44.8373 42.433 44.944C42.6677 45.0293 42.785 45.104 42.785 45.168C42.785 45.296 42.8277 45.3813 42.913 45.424C43.0197 45.4453 43.1263 45.4667 43.233 45.488C43.3823 45.488 43.6277 45.6267 43.969 45.904C44.3103 46.16 44.6517 46.48 44.993 46.864C45.3557 47.2267 45.6117 47.5893 45.761 47.952C45.9317 48.3147 46.0703 48.656 46.177 48.976C46.305 49.296 46.3157 49.7547 46.209 50.352C46.1877 50.672 46.1343 50.992 46.049 51.312C45.985 51.632 45.9103 51.8453 45.825 51.952C45.697 52.0373 45.5797 52.144 45.473 52.272C45.3663 52.4 45.313 52.5173 45.313 52.624C45.313 52.7093 45.2277 52.9227 45.057 53.264C44.8863 53.584 44.673 53.9573 44.417 54.384C44.161 54.7893 43.8837 55.1947 43.585 55.6C43.2863 56.0053 43.009 56.3253 42.753 56.56C42.4757 56.9013 42.145 57.2213 41.761 57.52C41.3983 57.8187 41.0677 58.064 40.769 58.256C40.2143 58.512 39.5743 58.7573 38.849 58.992C38.145 59.2267 37.4623 59.4187 36.801 59.568C36.1397 59.696 35.6063 59.7493 35.201 59.728C34.5823 59.8133 34.177 59.8987 33.985 59.984C33.793 60.048 33.6543 60.2293 33.569 60.528C33.4623 60.8053 33.3557 61.0933 33.249 61.392C33.1637 61.6907 33.121 61.904 33.121 62.032C33.0783 62.1173 32.9823 62.352 32.833 62.736C32.705 63.12 32.545 63.568 32.353 64.08C32.1823 64.592 32.0223 65.104 31.873 65.616C31.7237 66.128 31.6063 66.5653 31.521 66.928C31.4357 67.2267 31.2543 67.4507 30.977 67.6C30.721 67.7493 30.497 67.824 30.305 67.824ZM34.849 57.136C34.9343 57.2213 35.2117 57.232 35.681 57.168C36.1503 57.104 36.7157 56.944 37.377 56.688C37.8037 56.5387 38.2303 56.3573 38.657 56.144C39.105 55.9307 39.5317 55.696 39.937 55.44C40.1503 55.2907 40.3743 55.1093 40.609 54.896C40.8437 54.6613 41.1743 54.2773 41.601 53.744C41.665 53.6373 41.7717 53.4347 41.921 53.136C42.0917 52.816 42.241 52.5173 42.369 52.24C42.561 51.9413 42.753 51.504 42.945 50.928C43.137 50.3307 43.1797 49.84 43.073 49.456C42.9663 48.9013 42.753 48.4427 42.433 48.08C42.113 47.696 41.7077 47.4187 41.217 47.248C40.7477 47.1627 40.353 47.1093 40.033 47.088C39.7343 47.0667 39.4037 47.088 39.041 47.152C38.6997 47.2587 38.4543 47.408 38.305 47.6C38.177 47.792 37.985 48.1973 37.729 48.816C37.5797 49.1147 37.3663 49.5307 37.089 50.064C36.8117 50.576 36.577 51.0987 36.385 51.632C36.001 53.04 35.6597 54.1173 35.361 54.864C35.0837 55.6107 34.9023 56.1013 34.817 56.336C34.8383 56.5707 34.8277 56.7413 34.785 56.848C34.7423 56.9333 34.7637 57.0293 34.849 57.136ZM42.1453 72.336C41.1852 71.7813 40.4812 70.9493 40.0332 69.84C39.5852 68.7307 39.4146 67.5787 39.5212 66.384C39.5426 66.064 39.6386 65.7653 39.8092 65.488C39.9586 65.2107 40.1506 65.04 40.3852 64.976C40.6412 64.912 40.8439 64.944 40.9932 65.072C41.1426 65.1787 41.2386 65.3067 41.2812 65.456C41.3453 65.6053 41.3666 65.712 41.3453 65.776C41.3453 65.9253 41.4093 66.128 41.5373 66.384C41.6866 66.768 41.7719 67.1093 41.7933 67.408C41.8146 67.728 41.8573 67.9947 41.9213 68.208C42.0066 68.4427 42.1666 68.656 42.4013 68.848C42.4653 68.9333 42.5399 69.0507 42.6253 69.2C42.7106 69.3707 42.8279 69.456 42.9773 69.456C43.2759 69.6907 43.4893 69.808 43.6173 69.808C43.7453 69.808 43.9586 69.5627 44.2573 69.072C44.4279 68.7733 44.6519 68.304 44.9293 67.664C45.2279 67.024 45.5373 66.3413 45.8573 65.616C46.1986 64.8907 46.4866 64.2293 46.7213 63.632C46.9773 63.0347 47.1373 62.64 47.2013 62.448C47.2013 62.448 47.2333 62.416 47.2973 62.352C47.3613 62.2667 47.4146 62.1493 47.4573 62C47.4573 61.872 47.5106 61.6267 47.6173 61.264C47.7453 60.9013 47.8946 60.4747 48.0653 59.984C48.2573 59.4933 48.4386 59.0027 48.6093 58.512C48.8013 58.0213 48.9399 57.584 49.0253 57.2C49.3239 56.2827 49.6546 55.2907 50.0173 54.224C50.3799 53.136 50.7319 52.0907 51.0733 51.088C51.4146 50.064 51.6919 49.1893 51.9053 48.464C52.1399 47.7387 52.2679 47.28 52.2893 47.088C52.2893 46.8107 52.2466 46.6613 52.1613 46.64C52.0973 46.6187 51.8199 46.6827 51.3293 46.832C51.1159 46.896 50.8066 46.9173 50.4013 46.896C49.9959 46.8747 49.6013 46.9067 49.2173 46.992C48.9186 47.0133 48.6413 46.9067 48.3853 46.672C48.1293 46.416 47.9479 46.1067 47.8413 45.744C47.7346 45.36 47.7239 45.008 47.8093 44.688C47.8093 44.6027 47.9799 44.5173 48.3213 44.432C48.6626 44.3467 49.0146 44.3253 49.3773 44.368C49.4626 44.3893 49.5586 44.3787 49.6653 44.336C49.7933 44.2933 49.8999 44.2613 49.9853 44.24C50.1559 44.176 50.3586 44.1227 50.5933 44.08C50.8493 44.016 51.0946 44.0053 51.3293 44.048C51.5213 44.0693 51.6919 44.048 51.8413 43.984C51.9906 43.92 52.0653 43.888 52.0653 43.888C52.1506 43.9093 52.3533 43.9733 52.6733 44.08C53.0146 44.1867 53.2813 44.1973 53.4733 44.112C53.6226 44.1333 53.8039 44.0907 54.0173 43.984C54.2306 43.8773 54.3373 43.824 54.3373 43.824C54.4013 43.76 54.4973 43.8027 54.6253 43.952C54.7533 44.08 54.8813 44.24 55.0093 44.432C55.1373 44.624 55.2333 44.784 55.2973 44.912C55.4039 45.2533 55.4146 45.6373 55.3293 46.064C55.2653 46.4907 55.1693 47.0453 55.0413 47.728C54.9133 48.0693 54.7853 48.4533 54.6573 48.88C54.5293 49.3067 54.4119 49.6587 54.3053 49.936C54.2839 50.2773 54.2199 50.6613 54.1133 51.088C54.0066 51.5147 53.8893 51.8453 53.7613 52.08C53.3559 53.3173 53.0679 54.2133 52.8973 54.768C52.7479 55.3227 52.6519 55.6427 52.6093 55.728C52.6093 55.728 52.5986 55.7707 52.5773 55.856C52.5773 55.9413 52.5346 56.08 52.4493 56.272C52.3426 56.2933 52.2573 56.4107 52.1933 56.624C52.1506 56.816 52.1293 56.9547 52.1293 57.04C52.0439 57.1893 51.9693 57.3173 51.9053 57.424C51.8626 57.5093 51.7986 57.5947 51.7133 57.68C51.7133 57.68 51.7026 57.7547 51.6813 57.904C51.6813 58.0533 51.6173 58.2133 51.4893 58.384C51.4893 58.5333 51.4786 58.704 51.4573 58.896C51.4359 59.0667 51.3613 59.3333 51.2333 59.696C51.1053 60.0373 50.8919 60.5493 50.5933 61.232C50.5719 61.3813 50.4866 61.648 50.3373 62.032C50.1879 62.416 50.0279 62.8213 49.8573 63.248C49.7079 63.6747 49.5693 64.048 49.4413 64.368C49.3133 64.688 49.2493 64.8693 49.2493 64.912C49.2066 65.104 48.9719 65.616 48.5453 66.448C48.1186 67.28 47.6493 68.304 47.1373 69.52C46.6893 70.5227 46.1773 71.28 45.6013 71.792C45.0253 72.3253 44.4386 72.624 43.8413 72.688C43.2439 72.752 42.6786 72.6347 42.1453 72.336Z" fill="black"/>
</svg>
